<?xml version="1.0" standalone="no"?><!DOCTYPE svg PUBLIC "-//W3C//DTD SVG 1.1//EN" "http://www.w3.org/Graphics/SVG/1.1/DTD/svg11.dtd"><svg t="1528706554048" class="icon" style="" viewBox="0 0 1024 1024" version="1.1" xmlns="http://www.w3.org/2000/svg" p-id="33896" xmlns:xlink="http://www.w3.org/1999/xlink" width="200" height="200"><defs><style type="text/css"></style></defs><path d="M896 277.333333H128c-34.133333 0-64 27.733333-64 64v341.333334c0 34.133333 29.866667 64 64 64h768c36.266667 0 64-29.866667 64-64V341.333333c0-36.266667-27.733333-64-64-64z m-228.266667 106.666667c0 4.266667-2.133333 10.666667-4.266666 19.2 0 2.133333-2.133333 4.266667-2.133334 4.266667h19.2v-38.4H725.333333v38.4h59.733334V448H725.333333v25.6h68.266667v40.533333h-51.2v34.133334c0 4.266667 2.133333 6.4 6.4 6.4s6.4-2.133333 6.4-6.4c0-2.133333 2.133333-8.533333 2.133333-14.933334 0-6.4 2.133333-12.8 2.133334-14.933333 6.4 2.133333 12.8 4.266667 21.333333 8.533333 6.4 2.133333 10.666667 4.266667 12.8 4.266667 0 12.8-2.133333 23.466667-4.266667 32-2.133333 21.333333-14.933333 32-36.266666 29.866667h-19.2c-25.6 0-38.4-12.8-38.4-40.533334V512h-19.2c0 34.133333-14.933333 64-44.8 85.333333-4.266667-2.133333-8.533333-8.533333-17.066667-14.933333l-17.066667-17.066667c23.466667-14.933333 34.133333-32 34.133334-55.466666H597.333333V469.333333h78.933334v-21.333333h-29.866667c0 2.133333-2.133333 4.266667-4.266667 6.4-2.133333 2.133333-4.266667 8.533333-6.4 14.933333-8.533333-4.266667-23.466667-8.533333-40.533333-14.933333 10.666667-23.466667 19.2-49.066667 25.6-78.933333l46.933333 8.533333z m-98.133333-14.933333c12.8 19.2 23.466667 38.4 36.266667 57.6l-42.666667 21.333333c-12.8-23.466667-23.466667-42.666667-34.133333-59.733333l40.533333-19.2z m-76.8 177.066666c-55.466667 55.466667-140.8 89.6-256 104.533334-2.133333-10.666667-8.533333-23.466667-14.933333-38.4 32-4.266667 66.133333-10.666667 102.4-19.2-2.133333-2.133333-4.266667-6.4-8.533334-10.666667-2.133333-2.133333-4.266667-4.266667-4.266666-6.4l40.533333-17.066667 8.533333 8.533334c4.266667 4.266667 6.4 8.533333 8.533334 10.666666 23.466667-8.533333 44.8-21.333333 61.866666-34.133333h-76.8c-23.466667 14.933333-57.6 29.866667-98.133333 44.8-6.4-12.8-14.933333-25.6-23.466667-40.533333 49.066667-12.8 89.6-29.866667 117.333334-51.2-27.733333 10.666667-66.133333 19.2-110.933334 29.866666 0-2.133333-2.133333-6.4-4.266666-10.666666-4.266667-12.8-8.533333-21.333333-10.666667-29.866667 34.133333-4.266667 64-10.666667 89.6-17.066667-2.133333-2.133333-4.266667-6.4-8.533333-10.666666s-6.4-8.533333-8.533334-10.666667l38.4-19.2 25.6 25.6c19.2-8.533333 40.533333-17.066667 59.733334-27.733333h-98.133334c-21.333333 12.8-42.666667 23.466667-64 32 0-2.133333-2.133333-4.266667-4.266666-8.533334-4.266667-6.4-10.666667-14.933333-19.2-27.733333 46.933333-17.066667 81.066667-36.266667 104.533333-57.6l55.466667 4.266667-10.666667 10.666666-10.666667 10.666667h115.2v40.533333c-34.133333 23.466667-66.133333 42.666667-98.133333 55.466667l40.533333 2.133333c-2.133333 2.133333-6.4 4.266667-8.533333 8.533334-4.266667 4.266667-8.533333 6.4-10.666667 8.533333h91.733334v40.533333z m300.8 87.466667c-2.133333 4.266667-2.133333 8.533333-4.266667 10.666667-19.2 0-44.8 0-74.666666-2.133334-34.133333 0-61.866667 0-78.933334-2.133333-29.866667 0-53.333333-10.666667-66.133333-29.866667-17.066667 17.066667-27.733333 29.866667-34.133333 38.4l-17.066667-51.2c8.533333-8.533333 19.2-17.066667 27.733333-23.466666v-66.133334h-27.733333v-44.8h72.533333V576c10.666667 19.2 29.866667 27.733333 55.466667 27.733333h153.6c2.133333 6.4-2.133333 17.066667-6.4 29.866667z" p-id="33897"></path></svg>