<?xml version="1.0" standalone="no"?><!DOCTYPE svg PUBLIC "-//W3C//DTD SVG 1.1//EN" "http://www.w3.org/Graphics/SVG/1.1/DTD/svg11.dtd"><svg t="1528706159684" class="icon" style="" viewBox="0 0 1024 1024" version="1.1" xmlns="http://www.w3.org/2000/svg" p-id="16614" xmlns:xlink="http://www.w3.org/1999/xlink" width="200" height="200"><defs><style type="text/css"></style></defs><path d="M822.743958 1023.658557l-653.992495-0.839003c-94.022759-9.016516-167.83289-89.477234-167.83289-187.093707L0.918573 347.48636c0-135.753352 83.170105-207.654827 185.43383-207.654827l66.677093 0L253.029495 46.966055l0.010072 0c0.239715-16.89388 13.961901-30.515346 30.862832-30.515346 17.052012 0 30.873911 13.862188 30.873911 30.961538 0 0.879292-0.045324 1.749518-0.117843 2.61068l0 89.809612 382.927954 0L697.586422 46.966055l0.012086 0c0.239715-16.89388 13.961901-30.515346 30.862832-30.515346 17.049997 0 30.873911 13.862188 30.873911 30.961538 0 0.879292-0.045324 1.749518-0.11885 2.61068l0 89.809612 63.527557 0c102.22948 0 185.381455 84.291126 185.381455 187.906523l0 507.961604C1008.125413 939.3352 924.950272 1023.658557 822.743958 1023.658557zM63.871015 854.246366c0 58.591236 50.750131 106.280466 113.121415 106.280466L832.110982 960.526832c62.341067 0 113.066018-47.689229 113.066018-106.280466L945.177 455.483106l-881.305985 0L63.871015 854.246366zM819.275138 202.96225l-60.057729 0 0 91.038405c0.072519 0.863176 0.117843 1.73441 0.117843 2.613702 0 17.099351-13.821899 30.961538-30.873911 30.961538-16.679345 0-30.26153-13.267936-30.843695-29.855625l-0.028202 0 0-94.75802L314.658467 202.96225l0 91.038405c0.072519 0.863176 0.117843 1.73441 0.117843 2.613702 0 17.099351-13.821899 30.961538-30.873911 30.961538-16.68136 0-30.263544-13.267936-30.845709-29.855625l-0.027195 0 0-94.75802-63.25964 0c-80.262299 0-125.900855 54.212908-125.900855 106.280466l0 83.109672 881.308 0 0-83.134853C950.64714 249.085273 881.615198 202.96225 819.275138 202.96225zM776.662231 834.267411l-40.678063 0c-23.51828 0-42.6119-14.143198-42.6119-31.565862s19.09362-31.563848 42.6119-31.563848l40.678063 0c23.520294 0 42.6119 14.141184 42.6119 31.563848S800.19864 834.267411 776.662231 834.267411zM776.662231 644.876266l-40.678063 0c-23.51828 0-42.6119-14.141184-42.6119-31.565862 0-17.424678 19.09362-31.565862 42.6119-31.565862l40.678063 0c23.520294 0 42.6119 14.141184 42.6119 31.565862C819.27413 630.735082 800.19864 644.876266 776.662231 644.876266zM524.855485 834.267411l-40.665976 0c-23.531373 0-42.617943-14.143198-42.617943-31.565862s19.08657-31.563848 42.617943-31.563848l40.665976 0c23.52533 0 42.617943 14.141184 42.617943 31.563848S548.379807 834.267411 524.855485 834.267411zM524.855485 644.876266l-40.665976 0c-23.531373 0-42.617943-14.141184-42.617943-31.565862 0-17.424678 19.08657-31.565862 42.617943-31.565862l40.665976 0c23.52533 0 42.617943 14.141184 42.617943 31.565862C567.473428 630.735082 548.379807 644.876266 524.855485 644.876266zM273.052767 834.267411l-40.665976 0c-23.52533 0-42.616936-14.143198-42.616936-31.565862s19.091606-31.563848 42.616936-31.563848l40.665976 0c23.531373 0 42.617943 14.141184 42.617943 31.563848S296.584141 834.267411 273.052767 834.267411zM273.052767 644.876266l-40.665976 0c-23.52533 0-42.616936-14.141184-42.616936-31.565862 0-17.424678 19.091606-31.565862 42.616936-31.565862l40.665976 0c23.531373 0 42.617943 14.141184 42.617943 31.565862C315.67071 630.735082 296.584141 644.876266 273.052767 644.876266z" p-id="16615"></path></svg>