<?xml version="1.0" standalone="no"?><!DOCTYPE svg PUBLIC "-//W3C//DTD SVG 1.1//EN" "http://www.w3.org/Graphics/SVG/1.1/DTD/svg11.dtd"><svg t="1528702943640" class="icon" style="" viewBox="0 0 1024 1024" version="1.1" xmlns="http://www.w3.org/2000/svg" p-id="10724" xmlns:xlink="http://www.w3.org/1999/xlink" width="200" height="200"><defs><style type="text/css"></style></defs><path d="M752.54538 1024c-3.224093 0-6.588364-0.140178-9.952635-0.280356H44.64668V243.629295c0-38.548939 9.952635-68.126489 29.717728-87.751403C94.1295 136.112799 124.40794 125.459274 164.358658 124.057495h408.618755v74.154141H164.21848c-30.558795 0-45.417659 14.858864-45.417659 45.417659l-0.140178 619.306229V949.705681h623.651746c31.820397 0 45.417659-13.597262 45.417659-45.417659V412.964271h74.154141v491.183573c0 79.480903-36.726626 119.852156-109.338809 119.852156zM247.624367 734.812868c-10.232991 0-20.185626-4.205339-27.334702-11.494593-7.008898-7.149076-10.793703-16.540999-10.513347-26.353456 0.280356-20.045448 16.961533-36.44627 37.006981-36.44627h412.123203c20.185626 0 37.427515 16.681177 37.84805 36.306092 0.280356 9.952635-3.644627 19.624914-10.513347 26.77399-6.86872 7.149076-16.540999 11.214237-26.493635 11.214237h-412.123203z m0-247.694456c-20.185626 0-37.427515-16.681177-37.848049-36.306092-0.280356-9.952635 3.644627-19.624914 10.513347-26.77399 6.86872-7.149076 16.540999-11.214237 26.493634-11.214237h288.205886c10.232991 0 20.185626 4.205339 27.334703 11.494593 7.008898 7.149076 10.793703 16.540999 10.513347 26.353456-0.280356 20.045448-16.961533 36.44627-37.006982 36.44627H247.624367z m577.112662-165.129637c-9.812457 0-18.924025-3.784805-25.932922-10.513347-7.149076-6.86872-11.214237-16.540999-11.214237-26.493635v-86.770157h-85.788912c-20.185626 0-37.427515-16.681177-37.848049-36.306092-0.280356-9.952635 3.644627-19.624914 10.513347-26.77399 6.86872-7.149076 16.540999-11.214237 26.493634-11.214237h86.770158V37.848049c0-20.185626 16.681177-37.427515 36.306092-37.848049h0.841067c9.812457 0 18.924025 3.784805 25.932923 10.513347 7.149076 6.86872 11.214237 16.540999 11.214237 26.493635v86.770157H947.953457c20.185626 0 37.427515 16.681177 37.848049 36.306092 0.280356 9.952635-3.644627 19.624914-10.513347 26.77399-6.86872 7.149076-16.540999 11.214237-26.493635 11.214237h-86.910335v85.92909c0 20.185626-16.681177 37.427515-36.306092 37.848049-0.280356 0-0.560712 0.140178-0.841068 0.140178z" fill="" p-id="10725"></path></svg>