<?xml version="1.0" standalone="no"?><!DOCTYPE svg PUBLIC "-//W3C//DTD SVG 1.1//EN" "http://www.w3.org/Graphics/SVG/1.1/DTD/svg11.dtd"><svg t="1531798186752" class="icon" style="" viewBox="0 0 1024 1024" version="1.1" xmlns="http://www.w3.org/2000/svg" p-id="1927" xmlns:xlink="http://www.w3.org/1999/xlink" width="200" height="200"><defs><style type="text/css"></style></defs><path d="M917.5181290653604 462.8742789543085H592.1966901128322c-27.543993677579582 0-50.04945246519835 22.505458787618764-50.04945246519835 50.04945246519835v404.09054401877336c0 27.543993677579582 22.505458787618764 50.04945246519835 50.04945246519835 50.04945246519835h325.48939062183507c27.543993677579582 0 50.04945246519835-22.505458787618764 50.04945246519835-50.04945246519835V512.9237314195067c0-27.543993677579582-22.673409076084933-50.04945246519835-50.21740413450535-50.04945246519835z m12.092485669083127 454.13999648397163c0 6.550095771201317-5.542388517040988 12.092485669083127-12.092485669083127 12.092485669083127H592.1966901128322c-6.550095771201317 0-12.092485669083127-5.542388517040988-12.092485669083127-12.092485669083127V512.9237314195067c0-6.550095771201317 5.542388517040988-12.092485669083127 12.092485669083127-12.092485669083127h325.48939062183507c6.550095771201317 0 12.092485669083127 5.542388517040988 12.092484288242305 12.092485669083127v404.09054401877336zM421.8941903957123 625.4510239767596H113.19991837514794c-32.414578279074235 0-59.118816371800484 26.536286423419256-59.118816371800484 59.118816371800484v223.54302285242468c0 32.582529948381236 26.536286423419256 59.118816371800484 59.118816371800484 59.118816371800484H421.8941903957123c32.414578279074235 0 59.118816371800484-26.536286423419256 59.118816371800484-59.118816371800484V684.5698403485605c0-32.582529948381236-26.704238092726253-59.118816371800484-59.118816371800484-59.118816371800484z m20.99389790637827 282.49388755491816c0 11.420680372695966-9.573217533682305 20.99389790637827-20.99389790637827 20.99389790637827H113.19991837514794c-11.420680372695966 0-20.99389790637827-9.573217533682305-20.99389790637827-20.99389790637827v-223.37507118311765c0-11.420680372695966 9.573217533682305-20.99389790637827 20.99389790637827-20.99389790637827H421.8941903957123c11.420680372695966 0 20.99389790637827 9.573217533682305 20.99389790637827 20.99389790637827v223.37507118311765zM909.1205704551452 58.95168660484222H600.5942487230473c-32.414578279074235 0-59.118816371800484 26.536286423419256-59.118816371800484 59.11881499095966v223.5430242332655c0 32.414578279074235 26.536286423419256 59.118816371800484 59.118816371800484 59.118816371800484h308.69427340140504c32.414578279074235 0 59.118816371800484-26.536286423419256 59.11881499095966-59.118816371800484V118.07050159580183c-0.1679516693069959-32.414578279074235-26.704238092726253-59.118816371800484-59.28676666026665-59.11881499095966z m20.99389790637827 282.66183922422516c0 7.557803025361647-3.8628773473343205 12.428387626856297-6.214193813428149 14.779704092950121-2.351316466093827 2.351316466093827-7.38985135605465 6.214193813428149-14.779704092950121 6.214193813428149H600.5942487230473c-11.420680372695966 0-20.99389790637827-9.573217533682305-20.99389790637827-20.99389790637827V118.07050159580183c0-11.420680372695966 9.573217533682305-20.99389790637827 20.99389790637827-20.993896525537448h308.69427340140504c11.420680372695966 0 20.99389790637827 9.573217533682305 20.993896525537448 20.993896525537448v223.5430242332655zM105.47416368047931 563.6449891810923h325.48939062183507c27.543993677579582 0 50.04945246519835-22.505458787618764 50.04945246519835-50.04945246519835V109.50499131627987c0-27.543993677579582-22.505458787618764-50.04945246519835-50.04945246519835-50.049451084357536H105.47416368047931c-27.543993677579582 0-50.04945246519835 22.505458787618764-50.04945246519835 50.049451084357536v404.09054539961414c-0.1679516693069959 27.543993677579582 22.505458787618764 50.04945246519835 50.04945246519835 50.04945246519835z m-12.092485669083127-454.1399978648125c0-6.550095771201317 5.542388517040988-12.092485669083127 12.092485669083127-12.092484288242305h325.48939062183507c6.550095771201317 0 12.092485669083127 5.542388517040988 12.092485669083127 12.092484288242305v404.09054539961414c0 4.1987793051074895-2.1833647967868313 7.05394939828148-3.526975389561152 8.397558610214979-1.3436092119334977 1.3436092119334977-4.1987793051074895 3.526975389561152-8.397558610214979 3.526975389561152H105.47416368047931c-6.550095771201317 0-12.092485669083127-5.542388517040988-12.092485669083127-12.092485669083127V109.50499131627987z" fill="" p-id="1928"></path></svg>