<?xml version="1.0" encoding="utf-8"?>
<!-- Generator: Adobe Illustrator 22.0.1, SVG Export Plug-In . SVG Version: 6.00 Build 0)  -->
<svg version="1.1" id="图层_1" xmlns="http://www.w3.org/2000/svg" xmlns:xlink="http://www.w3.org/1999/xlink" x="0px" y="0px"
	 viewBox="0 0 200 200" style="enable-background:new 0 0 200 200;" xml:space="preserve">
<g>
	<path d="M155.2,144.3H43.8C21.3,144.3,3,126.1,3,103.6c0-22.5,18.3-40.8,40.8-40.8h111.4c22.5,0,40.8,18.3,40.8,40.8
		S177.6,144.3,155.2,144.3z M43.8,65.8C22.9,65.8,6,82.7,6,103.6s17,37.8,37.8,37.8h111.4c20.8,0,37.8-17,37.8-37.8
		s-17-37.8-37.8-37.8L43.8,65.8z"/>
	<path d="M155.2,146.3H43.8C20.2,146.3,1,127.2,1,103.6s19.2-42.8,42.8-42.8h111.4c23.6,0,42.8,19.2,42.8,42.8
		S178.7,146.3,155.2,146.3z M43.8,67.8C24,67.8,8,83.8,8,103.6s16.1,35.8,35.8,35.8h111.4c19.7,0,35.8-16.1,35.8-35.8
		s-16.1-35.8-35.8-35.8H43.8z"/>
</g>
<path d="M166.9,99.6h-23V76.5c0-2.6-2.1-4.8-4.8-4.8c-2.6,0-4.8,2.1-4.8,4.8v23.1h-23.1c-2.6,0-4.8,2.1-4.8,4.8
	c0,2.6,2.1,4.8,4.8,4.8h23.1v23c0,2.6,2.1,4.8,4.8,4.8c2.6,0,4.8-2.1,4.8-4.8v-23h23c2.6,0,4.8-2.1,4.8-4.8
	C171.7,101.7,169.5,99.6,166.9,99.6L166.9,99.6z"/>
<path d="M79.7,109.2H28.1c-2.5,0-4.4-2.1-4.4-4.8c0-2.6,2-4.8,4.4-4.8h51.6c2.5,0,4.4,2.1,4.4,4.8C84.1,107,82.1,109.2,79.7,109.2
	L79.7,109.2z"/>
</svg>
