<?xml version="1.0" standalone="no"?><!DOCTYPE svg PUBLIC "-//W3C//DTD SVG 1.1//EN" "http://www.w3.org/Graphics/SVG/1.1/DTD/svg11.dtd"><svg t="1528706827305" class="icon" style="" viewBox="0 0 1024 1024" version="1.1" xmlns="http://www.w3.org/2000/svg" p-id="43956" xmlns:xlink="http://www.w3.org/1999/xlink" width="200" height="200"><defs><style type="text/css"></style></defs><path d="M816.638255 607.130637 207.362768 607.130637c-76.532047 0-138.795113-62.264089-138.795113-138.795113 0-76.532047 62.264089-138.795113 138.795113-138.795113l609.275487 0c76.532047 0 138.79409 62.263066 138.79409 138.795113S893.169279 607.130637 816.638255 607.130637zM207.362768 339.674213c-70.943772 0-128.660288 57.716516-128.660288 128.660288s57.71754 128.660288 128.660288 128.660288l609.275487 0c70.943772 0 128.659265-57.716516 128.659265-128.660288s-57.715493-128.660288-128.659265-128.660288L207.362768 339.674213z" p-id="43957"></path><path d="M785.495978 458.153628l-48.955992 0L736.539986 409.192519c0-5.624091-4.559852-10.183943-10.183943-10.183943-5.623068 0-10.183943 4.559852-10.183943 10.183943l0 48.960085-48.960085 0c-5.624091 0-10.183943 4.560876-10.183943 10.183943 0 5.624091 4.559852 10.183943 10.183943 10.183943l48.960085 0 0 48.955992c0 5.624091 4.560876 10.183943 10.183943 10.183943 5.624091 0 10.183943-4.559852 10.183943-10.183943L736.539986 478.521514l48.955992 0c5.624091 0 10.183943-4.559852 10.183943-10.183943C795.679921 462.714504 791.121092 458.153628 785.495978 458.153628L785.495978 458.153628zM785.495978 458.153628" p-id="43958"></path><path d="M356.787986 478.459093l-118.283963 0c-5.624091 0-10.183943-4.560876-10.183943-10.183943 0-5.624091 4.559852-10.183943 10.183943-10.183943l118.283963 0c5.624091 0 10.183943 4.559852 10.183943 10.183943C366.971929 473.898217 362.412077 478.459093 356.787986 478.459093L356.787986 478.459093zM356.787986 478.459093" p-id="43959"></path></svg>