<?xml version="1.0" standalone="no"?><!DOCTYPE svg PUBLIC "-//W3C//DTD SVG 1.1//EN" "http://www.w3.org/Graphics/SVG/1.1/DTD/svg11.dtd"><svg t="1527746999367" class="icon" style="" viewBox="0 0 1024 1024" version="1.1" xmlns="http://www.w3.org/2000/svg" p-id="5362" xmlns:xlink="http://www.w3.org/1999/xlink" width="200" height="200"><defs><style type="text/css"></style></defs><path d="M875.931686 523.272741c-20.3597 0-36.900422 16.540721-36.900422 36.918841 0 180.590008-146.915048 327.487659-327.487659 327.487659S184.056969 740.78159 184.056969 560.190559c0-170.932044 131.690298-311.487244 298.893414-326.046844l-33.837666 23.261797c-16.791431 11.550057-21.0095 34.522258-9.459442 51.331086 7.134491 10.378371 18.666128 15.962553 30.414707 15.962553 7.224542 0 14.484899-2.088568 20.881586-6.484691l133.762493-92.034113c0.703011-0.468674 1.25969-1.100054 1.927909-1.62194 0.791016-0.63138 1.566682-1.278109 2.306532-1.962701 1.585101-1.477654 2.991124-3.081175 4.269233-4.793166 0.287549-0.397043 0.684592-0.703011 0.974188-1.100054 0.107447-0.144286 0.160659-0.341784 0.26913-0.485047 0.828878-1.261737 1.496074-2.612501 2.180666-3.965312 0.431835-0.847298 0.918929-1.675152 1.297552-2.540869 0.468674-1.188058 0.774643-2.412956 1.116427-3.637854 0.324388-1.081635 0.721431-2.162246 0.937348-3.2623 0.234337-1.134847 0.252757-2.288113 0.35918-3.459798 0.12689-1.190105 0.305969-2.378164 0.305969-3.568269 0-1.206478-0.179079-2.394537-0.305969-3.584642-0.107447-1.153266-0.125867-2.324952-0.35918-3.441379-0.215918-1.118474-0.61296-2.180666-0.937348-3.297093-0.340761-1.208525-0.647753-2.433422-1.116427-3.603061-0.378623-0.902556-0.900509-1.730411-1.334391-2.596128-0.666172-1.350764-1.315972-2.665713-2.143826-3.910053-0.10847-0.162706-0.162706-0.324388-0.26913-0.503467-0.505513-0.703011-1.13587-1.280156-1.658779-1.946328-0.865717-1.081635-1.693572-2.180666-2.684132-3.152806-1.00898-1.043772-2.125407-1.89107-3.225461-2.756787-0.666172-0.505513-1.206478-1.118474-1.909489-1.603521L490.950591 73.338309c-16.793478-11.550057-39.747259-7.297197-51.296293 9.477862-11.550057 16.791431-7.331989 39.765679 9.459442 51.312666l37.22481 25.603121c-209.561853 13.080923-376.081401 187.636494-376.081401 400.458601 0 221.274616 180.012863 401.287479 401.287479 401.287479s401.287479-180.012863 401.287479-401.287479C912.832108 539.813462 896.309806 523.272741 875.931686 523.272741z" p-id="5363"></path></svg>