<?xml version="1.0" standalone="no"?><!DOCTYPE svg PUBLIC "-//W3C//DTD SVG 1.1//EN" "http://www.w3.org/Graphics/SVG/1.1/DTD/svg11.dtd"><svg t="1528098578805" class="icon" style="" viewBox="0 0 1024 1024" version="1.1" xmlns="http://www.w3.org/2000/svg" p-id="7300" xmlns:xlink="http://www.w3.org/1999/xlink" width="200" height="200"><defs><style type="text/css"></style></defs><path d="M795.741 663.636c96.181-144.961 81.952-342.806-44.94-470.539-143.43-144.394-376.051-144.394-519.543 0-143.492 144.394-143.492 378.464 0 522.855 126.954 127.732 323.436 141.995 466.491 43.607 0.437 0.506 125.475 130.419 125.475 130.419 18.595 19.321 49.019 19.545 67.957 0.493l28.291-28.458c18.938-19.049 19.136-50.206 0.582-69.447l-124.315-128.931zM705.909 670.761c-118.645 119.299-311.043 119.299-429.756 0-118.645-119.434-118.645-313.038 0-432.404 118.713-119.434 311.109-119.434 429.756-0.067 118.58 119.434 118.58 313.038 0 432.47v0z" p-id="7301"></path></svg>