<?xml version="1.0" standalone="no"?><!DOCTYPE svg PUBLIC "-//W3C//DTD SVG 1.1//EN" "http://www.w3.org/Graphics/SVG/1.1/DTD/svg11.dtd"><svg t="1528706086195" class="icon" style="" viewBox="0 0 1024 1024" version="1.1" xmlns="http://www.w3.org/2000/svg" p-id="15920" xmlns:xlink="http://www.w3.org/1999/xlink" width="200" height="200"><defs><style type="text/css"></style></defs><path d="M819.2 0H204.8a204.8 204.8 0 0 0-204.8 204.8v614.4a204.8 204.8 0 0 0 204.8 204.8h614.4a204.8 204.8 0 0 0 204.8-204.8V204.8a204.8 204.8 0 0 0-204.8-204.8z m118.4256 767.3344a170.24 170.24 0 0 1-170.24 170.24H256.6656a170.24 170.24 0 0 1-170.24-170.24V256.6656a170.24 170.24 0 0 1 170.24-170.24h510.72a170.24 170.24 0 0 1 170.24 170.24v510.6688z" p-id="15921"></path><path d="M512 637.696L306.7904 433.2544h410.4192L512 637.696z" p-id="15922"></path></svg>