<?xml version="1.0" standalone="no"?><!DOCTYPE svg PUBLIC "-//W3C//DTD SVG 1.1//EN" "http://www.w3.org/Graphics/SVG/1.1/DTD/svg11.dtd"><svg t="1528348599724" class="icon" style="" viewBox="0 0 1024 1024" version="1.1" xmlns="http://www.w3.org/2000/svg" p-id="3422" xmlns:xlink="http://www.w3.org/1999/xlink" width="200" height="200"><defs><style type="text/css"></style></defs><path d="M860.017 769.508l-179.65-177.423c11.576-24.292 18.013-51.474 18.013-79.997 0-102.973-83.165-186.238-186.265-186.238-17.124 0-33.97 2.305-49.751 6.688l79.694 79.44c33.058 33.285 30.521 88.99-5.347 124.78-35.717 35.595-91.676 38.104-124.733 5.373l-79.517-80.021c-4.407 15.881-6.713 32.551-6.713 49.979 0 103.15 83.443 186.796 186.315 186.796 28.317 0 55.782-6.484 79.72-18.166l178.866 177.807c22.849 22.394 60.971 21.05 85.468-3.831 24.471-24.315 26.216-62.82 3.9-85.187z m-48.232 72.349c-17.326 0-31.966-14.165-31.966-31.768 0-17.027 14.64-31.008 31.966-31.008 17.504 0 31.589 13.964 31.589 31.008 0 17.603-14.085 31.768-31.589 31.768z m91.297-412.478h-18.188l-42.404-0.378h-0.3c-8.518-0.787-16.623-3.825-23.74-8.435-0.48 0-0.658-0.203-0.963-0.583-15.046-9.752-25.08-27.18-24.799-46.509 0-6.132 1.24-11.677 3.168-17.428 1.695-6.105 4.787-12.057 8.917-17.023l9.345-9.576 21.178-20.847 12.413-12.64c18.114-23.332 18.114-56.845-0.631-80.377l-36.375-37.315c-24.244-18.567-57.61-19.149-81.244-1.138l-13.22 12.616-29.465 30.244h-0.402c-16.083 13.02-38.276 15.503-56.64 7.448-6.335-2.862-11.982-6.486-17.506-11.855-8.714-9.373-14.087-20.67-15.58-32.727v-61.229C593 91.966 569.441 68.61 539.117 65.164h-51.85c-29.791 3.268-53.78 26.599-58.011 56.083v60.67c-0.177 1.545-0.76 3.243-0.862 4.611v0.556c-0.48 1.52-0.632 3.066-0.836 4.41-0.582 0-0.582 0.583-0.582 0.583-0.532 1.341-0.836 3.444-1.595 4.38-0.509 1.724-1.47 3.065-2.206 4.61v0.18c-3.166 6.508-7.573 12.056-13.501 16.843-9.575 8.234-22.419 13.197-36.172 13.197-12.92 0-24.978-4.381-34.3-12.056l-9.447-9.55-21.103-20.67-12.818-13.022c-23.557-17.984-56.943-17.984-80.402 0.962l-37.187 36.732c-18.744 23.356-19.05 56.844-1.139 80.78l12.818 12.616 30.043 29.867c0.583 0.962 1.039 1.722 1.621 2.66 0.404 0.177 0.76 0.963 1.545 1.924 0.406 0.56 0.736 1.698 1.342 2.484 0 0.18 0.989 1.141 0.989 1.723 0.532 0.76 1.138 2.103 1.773 3.066 0 0.557 0.203 1.14 0.506 1.722 0.557 0.759 0.76 2.103 1.621 3.268 0 0.38 0.1 0.962 0.303 1.518 0.153 1.725 1.039 3.066 1.039 4.763 0.482 1.724 0.735 3.243 0.735 4.99 2.432 16.467-3.142 33.692-15.984 46.333-9.07 9.193-20.721 14.54-32.803 15.881h-60.697c-29.764 4.232-53.221 27.943-56.565 57.427l-0.176 52.26c3.039 30.043 26.395 53.576 56.083 57.605h18.264l42.33 0.584c1.52 0.174 3.648 0.174 5.066 0.758h1.444c1.345 0.559 2.104 0.96 3.649 1.14 22.874 7.09 39.416 28.345 39.416 53.598 0 12.82-4.383 25.283-12.135 34.83l-9.297 8.998-21.33 20.87-12.739 12.645c-17.784 23.94-17.784 57.225 0.657 80.579l37.036 37.308c23.633 18.774 56.742 18.948 80.755 0.76l12.616-12.61 30.373-29.664c0-0.385 0.254-0.385 0.633-0.586 1.141-1.133 2.407-1.719 3.269-2.862 1.039-0.175 1.241-0.175 2.001-0.76 0.56-0.375 1.545-1.16 2.306-1.72 1.039-0.584 2.38-0.758 3.444-1.343 0.66-0.385 1.166-0.559 1.369-0.96 1.595-0.183 2.66-0.759 4.76-1.343 1.825-0.559 3.066-1.344 4.41-1.344h0.506c1.445-0.384 2.963-0.584 4.61-0.96h0.38c1.368 0 2.686 0 3.825-0.584 15.503-0.559 31.182 4.783 42.708 16.67 9.55 9.172 14.54 21.049 16.187 33.103l-0.203 13.021v47.475c3.624 30.066 27.46 53.603 57.198 56.667h52.338c29.992-3.064 53.498-26.401 57.627-55.707v-17.986l0.48-30.625v-12.06c1.17-10.918 5.07-19.908 11.1-27.937 0.58-0.96 1.135-1.545 1.72-2.104 0.38-0.2 0.839-1.343 1.725-1.719 3.32-3.648 7.063-6.894 11.17-9.757 1.244-0.175 2.483-1.143 3.268-1.72 0.935-0.56 0.935-0.56 1.344-0.56 0.554-0.173 0.934-0.173 1.038-0.173 1.061-0.769 1.92-0.769 3.164-1.344l-50.08-49.928c-21.705 6.3-44.583 9.373-68.217 9.373-135.423-0.185-244.5-109.844-244.044-244.606 0-135.497 110.066-244.98 245.285-244.601 135.039 0.556 244.07 110.243 243.868 245.388-0.104 22.948-3.573 45.748-9.705 66.393l50.462 49.6c2.584-5.93 6.686-11.096 11.277-16.289 5.19-4.966 12.078-8.788 18.361-11.271 4.74-2.104 9.6-3.647 14.287-4.229h61.046c29.664-4.031 53.124-27.561 56.466-57.224V486.91c-2.988-29.564-26.246-53.503-55.705-57.53z" p-id="3423"></path></svg>