<?xml version="1.0" standalone="no"?><!DOCTYPE svg PUBLIC "-//W3C//DTD SVG 1.1//EN" "http://www.w3.org/Graphics/SVG/1.1/DTD/svg11.dtd"><svg t="1528090876767" class="icon" style="" viewBox="0 0 1024 1024" version="1.1" xmlns="http://www.w3.org/2000/svg" p-id="2701" xmlns:xlink="http://www.w3.org/1999/xlink" width="200" height="200"><defs><style type="text/css"></style></defs><path d="M896 128 128 128c-35.345 0-64 28.651-64 63.994l0 640.012C64 867.353 92.654 896 128 896l768 0c35.345 0 64-28.651 64-63.994L960 191.994C960 156.647 931.346 128 896 128zM352 832 159.992 832C142.323 832 128 817.671 128 799.996L128 704l224 0L352 832zM352 640 128 640 128 512l224 0L352 640zM352 448 128 448 128 320l224 0L352 448zM608 832 416 832 416 704l192 0L608 832zM608 640 416 640 416 512l192 0L608 640zM608 448 416 448 416 320l192 0L608 448zM896 799.996C896 817.672 881.681 832 864.008 832L672 832 672 704l224 0L896 799.996zM896 640 672 640 672 512l224 0L896 640zM896 448 672 448 672 320l224 0L896 448z" p-id="2702"></path></svg>