<?xml version="1.0" standalone="no"?><!DOCTYPE svg PUBLIC "-//W3C//DTD SVG 1.1//EN" "http://www.w3.org/Graphics/SVG/1.1/DTD/svg11.dtd"><svg t="1528090986081" class="icon" style="" viewBox="0 0 1024 1024" version="1.1" xmlns="http://www.w3.org/2000/svg" p-id="4586" xmlns:xlink="http://www.w3.org/1999/xlink" width="200" height="200"><defs><style type="text/css"></style></defs><path d="M177.697 741.043h185.982c12.353 0.196 22.195 10.36 22.008 22.705-0.195 12.074-9.935 21.804-22.008 21.999h-208.22c-12.328 0.068-22.382-9.859-22.458-22.177V338.968h-22.237c-12.404 0-22.449-10.045-22.449-22.449V227.35c0-12.396 10.045-22.45 22.449-22.45h89.178c12.395 0.017 22.423 10.063 22.44 22.45v89.177c0 12.396-10.045 22.441-22.44 22.441h-22.238v163.831h185.992c12.335-0.017 22.348 9.977 22.365 22.321 0.007 12.344-9.986 22.356-22.331 22.373H177.705v193.55h-0.008zM311.696 227.35c-0.008-12.387 10.037-22.45 22.432-22.45h565.771c12.386 0.017 22.432 10.063 22.45 22.45v89.177c0 12.396-10.045 22.441-22.45 22.441H334.146c-12.396 0-22.449-10.045-22.458-22.441V227.35h0.008z m163.823 253.202c-0.025-12.378 9.985-22.432 22.365-22.457H899.9c12.386 0.025 22.432 10.062 22.45 22.457v89.168c0 12.354-10.021 22.384-22.382 22.384H498.035c-12.396 0.032-22.483-9.986-22.517-22.384v-89.168h0.001z m0 238.255c0-12.371 10.011-22.448 22.517-22.448H899.9c12.386 0.015 22.432 10.061 22.45 22.448v89.169c0.031 12.362-9.943 22.417-22.297 22.449H498.035c-12.396 0.033-22.483-9.978-22.517-22.373v-89.245h0.001z" p-id="4587"></path></svg>