<?xml version="1.0" standalone="no"?><!DOCTYPE svg PUBLIC "-//W3C//DTD SVG 1.1//EN" "http://www.w3.org/Graphics/SVG/1.1/DTD/svg11.dtd"><svg t="1528706592050" class="icon" style="" viewBox="0 0 1024 1024" version="1.1" xmlns="http://www.w3.org/2000/svg" p-id="34280" xmlns:xlink="http://www.w3.org/1999/xlink" width="200" height="200"><defs><style type="text/css"></style></defs><path d="M940.21445761 940.61939258c-13.77507393 13.70585302-32.67253828 21.45865869-52.05455243 21.45865781h-226.04273877c-15.43638955 0-30.45745107-5.0877791-42.91731739-13.94812792-12.11375918 8.6872957-26.85793359 13.94812793-42.88270605 13.94812792H135.8262626a74.30925761 74.30925761 0 0 1-52.6775458-22.08165117 74.30925761 74.30925761 0 0 1-21.14716114-53.12748516V135.85047911c0-40.73684062 33.12247763-73.85931826 73.82470694-73.85931739h440.49088037c40.73684062 0 73.85931826 33.12247763 73.85931826 73.85931738v113.80011153a75.45141211 75.45141211 0 0 1 11.94070518-1.17676496h226.04273877c40.73684062 0 73.85931826 33.12247763 73.85931827 73.82470695v564.84726767a73.92853916 73.92853916 0 0 1-21.80476584 53.47359229zM586.07737138 135.85047911a10.03711465 10.03711465 0 0 0-9.96789286-9.76022843H135.96470527a10.10633555 10.10633555 0 0 0-9.89867109 9.96789287v751.08765674a10.03711465 10.03711465 0 0 0 9.96789287 9.76022842h440.28321592a10.03711465 10.03711465 0 0 0 9.76022841-9.96789287V135.85047911z m310.73521905 186.4480535a10.03711465 10.03711465 0 0 0-9.96789287-9.76022841l0.2422749-13.87890703h-0.38071845v13.87890703h-224.5890876a10.03711465 10.03711465 0 0 0-9.76022842 9.96789287v564.63960322a10.03711465 10.03711465 0 0 0 9.96789287 9.76022842h224.7621416a10.03711465 10.03711465 0 0 0 9.72561797-9.96789287V322.29853262z m-94.07199023 378.43382462h-86.11151924a32.08415537 32.08415537 0 0 1 0-64.09908897h86.11151924a32.08415537 32.08415537 0 0 1 0 64.09908896z m0-187.90170381h-86.11151924a32.08415537 32.08415537 0 0 1 0-64.09908985h86.11151924a32.08415537 32.08415537 0 0 1 0 64.09908985z m-309.62767501 187.9017038H405.51314434a32.08415537 32.08415537 0 0 1 0-64.09908896h87.59978085a32.08415537 32.08415537 0 0 1 0 64.09908897z m2e-8-184.26757675H405.51314434a32.08415537 32.08415537 0 0 1 0-64.09908896h87.59978085a32.04954492 32.04954492 0 0 1 0 64.09908896z m0-188.28242227H405.51314434a32.08415537 32.08415537 0 0 1 0-64.09908896h87.59978085a32.08415537 32.08415537 0 0 1 0 64.09908896zM306.28415411 700.73235722H218.33826523a32.08415537 32.08415537 0 0 1 0-64.09908896h87.94588888a32.08415537 32.08415537 0 0 1-1e-8 64.09908896z m-1e-8-184.26757675H218.33826523a32.08415537 32.08415537 0 0 1 0-64.09908896h87.94588888a32.08415537 32.08415537 0 0 1-1e-8 64.09908896z m0-188.28242227H218.33826523a32.08415537 32.08415537 0 0 1 0-64.09908896h87.94588888a32.08415537 32.08415537 0 0 1-1e-8 64.09908896z" p-id="34281"></path></svg>