<?xml version="1.0" standalone="no"?><!DOCTYPE svg PUBLIC "-//W3C//DTD SVG 1.1//EN" "http://www.w3.org/Graphics/SVG/1.1/DTD/svg11.dtd"><svg t="1528348639081" class="icon" style="" viewBox="0 0 1024 1024" version="1.1" xmlns="http://www.w3.org/2000/svg" p-id="4160" xmlns:xlink="http://www.w3.org/1999/xlink" width="200" height="200"><defs><style type="text/css"></style></defs><path d="M129.723 576.837V768.11c0 35.114 63.758 63.757 63.758 63.757H894.82s64.692-10.398 64.692 18.556c0 28.89-30.76 44.394-30.76 44.394l-771.32-1.057c-92.4 0-91.528-102.237-91.528-102.237V167.515c0-31.008 45.329-36.178 45.329-36.178 28.89 0 18.492 62.95 18.492 62.95v318.788l-0.001 63.762z" p-id="4161"></path><path d="M894.532 309.677l-216.279-111.7-265.54 370.686c-6.732 11.136-20.142 14.234-30.347 7.069L234.369 469.939l-38.789-31.471-2.458-13.025c0-8.909 4.435-17.043 11.487-21.255 7.053-4.212 15.602-3.873 22.44 0.968l160.874 116.88 264.845-369.571c6.411-10.797 19.287-13.993 29.332-7.795l245.343 129.952c6.84 4.31 11.06 12.347 11.06 21.062 0 0 0 13.267-13.731 19.319s-30.24-5.326-30.24-5.326zM192 604.685V771h748V494.584L685.198 422.49l-295.3 251.384L192 604.685z" p-id="4162"></path></svg>