<?xml version="1.0" standalone="no"?><!DOCTYPE svg PUBLIC "-//W3C//DTD SVG 1.1//EN" "http://www.w3.org/Graphics/SVG/1.1/DTD/svg11.dtd"><svg t="1528706231441" class="icon" style="" viewBox="0 0 1024 1024" version="1.1" xmlns="http://www.w3.org/2000/svg" p-id="17491" xmlns:xlink="http://www.w3.org/1999/xlink" width="200" height="200"><defs><style type="text/css"></style></defs><path d="M352 106.666667h-42.666667c-17.066667 0-32 14.933333-32 32v85.333333c0 17.066667 14.933333 32 32 32h42.666667c17.066667 0 32-14.933333 32-32v-85.333333c0-17.066667-14.933333-32-32-32zM714.666667 106.666667h-42.666667c-17.066667 0-32 14.933333-32 32v85.333333c0 17.066667 14.933333 32 32 32h42.666667c17.066667 0 32-14.933333 32-32v-85.333333c0-17.066667-14.933333-32-32-32zM768 469.333333H362.666667v85.333334h405.333333v-85.333334zM661.333333 640H256v85.333333h405.333333v-85.333333z" p-id="17492"></path><path d="M832 192h-42.666667v85.333333c0 10.666667-8.533333 21.333333-21.333333 21.333334h-149.333333c-10.666667 0-21.333333-8.533333-21.333334-21.333334V192h-170.666666v85.333333c0 10.666667-8.533333 21.333333-21.333334 21.333334h-149.333333c-10.666667 0-21.333333-8.533333-21.333333-21.333334V192H192c-36.266667 0-64 27.733333-64 64v554.666667c0 36.266667 27.733333 64 64 64h640c36.266667 0 64-27.733333 64-64V256c0-36.266667-27.733333-64-64-64z m2.133333 618.666667c0 2.133333-2.133333 2.133333-2.133333 2.133333H192c-2.133333 0-2.133333-2.133333-2.133333-2.133333V384h646.4v426.666667z" p-id="17493"></path></svg>