<?xml version="1.0" standalone="no"?><!DOCTYPE svg PUBLIC "-//W3C//DTD SVG 1.1//EN" "http://www.w3.org/Graphics/SVG/1.1/DTD/svg11.dtd"><svg t="1528092545528" class="icon" style="" viewBox="0 0 1024 1024" version="1.1" xmlns="http://www.w3.org/2000/svg" p-id="6618" xmlns:xlink="http://www.w3.org/1999/xlink" width="200" height="200"><defs><style type="text/css"></style></defs><path d="M925.892923 0H301.252923a89.166769 89.166769 0 0 0-89.245538 88.969846v400.659692H59.470769c-32.768 0-59.470769 26.663385-59.470769 59.431385v415.507692C0 997.376 26.702769 1024 59.470769 1024h416.492308c32.768 0 59.470769-26.505846 59.470769-59.392v-163.406769h390.459077a89.166769 89.166769 0 0 0 89.206154-88.930462V88.969846A89.166769 89.166769 0 0 0 925.892923 0z m-11.185231 166.872615v467.495385c0 36.864-29.932308 66.717538-66.99323 66.717538H379.234462c-36.942769 0-66.953846-29.853538-66.953847-66.756923V166.872615c0-36.864 29.853538-66.756923 66.953847-66.756923h468.48c37.060923 0 66.953846 29.892923 66.953846 66.756923z" p-id="6619"></path><path d="M808.96 222.601846h-380.376615a36.745846 36.745846 0 0 0-36.785231 36.509539c0 20.086154 16.541538 36.509538 36.785231 36.509538h380.534153a36.745846 36.745846 0 0 0 36.785231-36.509538 37.021538 37.021538 0 0 0-36.942769-36.509539z m0 220.829539h-380.376615a36.745846 36.745846 0 0 0-36.785231 36.509538c0 20.086154 16.541538 36.509538 36.785231 36.509539h380.534153a36.745846 36.745846 0 0 0 36.785231-36.509539 36.903385 36.903385 0 0 0-36.942769-36.509538z" p-id="6620"></path></svg>