<?xml version="1.0" standalone="no"?><!DOCTYPE svg PUBLIC "-//W3C//DTD SVG 1.1//EN" "http://www.w3.org/Graphics/SVG/1.1/DTD/svg11.dtd"><svg t="1526628576050" class="icon" style="" viewBox="0 0 1024 1024" version="1.1" xmlns="http://www.w3.org/2000/svg" p-id="1346" xmlns:xlink="http://www.w3.org/1999/xlink" width="200" height="200"><defs><style type="text/css"></style></defs><path d="M889.0859375 412.3671875L809.7171875 491.9046875 809.7171875 491.91875 770.0328125 531.6875 770.0328125 531.6734375 399.78125 906.2140625 174.78125 906.2140625C143.7171875 906.2140625 118.53125 881.028125 118.53125 849.95L118.53125 624.9640625 611.3234375 133.94375C633.246875 111.978125 668.76875 111.978125 690.678125 133.94375L889.0859375 332.815625C910.9953125 354.78125 910.9953125 390.4015625 889.0859375 412.3671875ZM174.78125 650.9515625L174.78125 849.95 373.0484375 849.95 730.3484375 491.9046875 531.9546875 293.01875 174.78125 650.9515625ZM651.0078125 173.7125L571.6390625 253.25 770.0328125 452.121875 849.4015625 372.5984375 651.0078125 173.7125Z" p-id="1347"></path></svg>