<?xml version="1.0" standalone="no"?><!DOCTYPE svg PUBLIC "-//W3C//DTD SVG 1.1//EN" "http://www.w3.org/Graphics/SVG/1.1/DTD/svg11.dtd"><svg t="1528707170691" class="icon" style="" viewBox="0 0 1024 1024" version="1.1" xmlns="http://www.w3.org/2000/svg" p-id="8035" xmlns:xlink="http://www.w3.org/1999/xlink" width="200" height="200"><defs><style type="text/css"></style></defs><path d="M490.7 123.9 127.3 123.9c-11.2 0-20.2 9-20.2 20.2l0 323c0 11.1 9 20.2 20.2 20.2l363.4 0c11.1 0 20.2-9 20.2-20.2l0-323C510.9 133 501.8 123.9 490.7 123.9L490.7 123.9zM450.3 426.8 167.7 426.8 167.7 325.8l60.6-60.6 101 100.9 60.6-60.6 60.6 60.6L450.3 426.8 450.3 426.8zM409.9 265.3c-22.3 0-40.4-18.1-40.4-40.4 0-22.3 18.1-40.4 40.4-40.4 22.3 0 40.4 18.1 40.4 40.4C450.3 247.2 432.2 265.3 409.9 265.3L409.9 265.3z" p-id="8036"></path><path d="M941.4 123.9 578 123.9c-11.2 0-20.2 9-20.2 20.2l0 323c0 11.1 9 20.2 20.2 20.2l363.4 0c11.1 0 20.2-9 20.2-20.2l0-323C961.6 133 952.5 123.9 941.4 123.9L941.4 123.9zM901 426.8 618.3 426.8 618.3 325.8l60.6-60.6 101 101 60.6-60.6 60.6 60.6L901 426.8 901 426.8zM860.6 265.3c-22.3 0-40.4-18.1-40.4-40.4 0-22.3 18.1-40.4 40.4-40.4 22.3 0 40.4 18.1 40.4 40.4C901 247.2 882.9 265.3 860.6 265.3L860.6 265.3z" p-id="8037"></path><path d="M941.4 536.7 578 536.7c-11.2 0-20.2 9-20.2 20.2l0 323c0 11.1 9 20.2 20.2 20.2l363.4 0c11.1 0 20.2-9 20.2-20.2l0-323C961.6 545.7 952.5 536.7 941.4 536.7L941.4 536.7zM901 839.5 618.3 839.5 618.3 738.6l60.6-60.6 101 101 60.6-60.6 60.6 60.6L901 839.5 901 839.5zM860.6 678c-22.3 0-40.4-18.1-40.4-40.4 0-22.3 18.1-40.4 40.4-40.4 22.3 0 40.4 18.1 40.4 40.4C901 659.9 882.9 678 860.6 678L860.6 678z" p-id="8038"></path><path d="M490.7 536.7 127.3 536.7c-11.2 0-20.2 9-20.2 20.2l0 323c0 11.1 9 20.2 20.2 20.2l363.4 0c11.1 0 20.2-9 20.2-20.2l0-323C510.9 545.7 501.8 536.7 490.7 536.7L490.7 536.7zM450.3 839.5 167.7 839.5 167.7 738.6l60.6-60.6 101 100.9 60.6-60.6 60.6 60.6L450.3 839.5 450.3 839.5zM409.9 678c-22.3 0-40.4-18.1-40.4-40.4 0-22.3 18.1-40.4 40.4-40.4 22.3 0 40.4 18.1 40.4 40.4C450.3 659.9 432.2 678 409.9 678L409.9 678z" p-id="8039"></path></svg>