<?xml version="1.0" standalone="no"?><!DOCTYPE svg PUBLIC "-//W3C//DTD SVG 1.1//EN" "http://www.w3.org/Graphics/SVG/1.1/DTD/svg11.dtd"><svg t="1527473741091" class="icon" style="" viewBox="0 0 1024 1024" version="1.1" xmlns="http://www.w3.org/2000/svg" p-id="3546" xmlns:xlink="http://www.w3.org/1999/xlink" width="200" height="200"><defs><style type="text/css"></style></defs><path d="M950.093 487.772l-179.775-173.078c-14.382-13.851-35.955-13.851-50.336 0-14.382 13.842-14.382 34.614 0 48.465l118.647 114.228h-345.168c-21.573 0-35.955 13.842-35.955 34.614s14.382 34.614 35.955 34.614h345.168l-118.639 114.228c-14.382 13.851-14.382 34.623 0 48.465 7.192 6.93 14.382 10.386 25.164 10.386 10.792 0 17.982-3.465 25.173-10.386l179.775-176.535s0-3.465 3.6-3.465c10.782-10.386 10.782-31.149-3.6-41.535z" p-id="3547"></path><path d="M853.010 754.307c-21.573 0-35.955 13.851-35.955 34.614v69.237c0 20.763-14.382 34.614-35.955 34.614h-611.235c-21.573 0-35.955-13.851-35.955-34.614v-692.317c0-20.763 14.382-34.614 35.955-34.614h611.235c21.573 0 35.955 13.851 35.955 34.614v69.237c0 20.764 14.382 34.614 35.955 34.614s35.955-13.851 35.955-34.614v-69.237c0-58.842-46.736-103.842-107.865-103.842h-611.235c-61.119 0-107.865 45-107.865 103.842v692.317c0 58.842 46.747 103.842 107.865 103.842h611.235c61.128 0 107.865-45 107.865-103.842v-69.237c0-20.764-14.382-34.614-35.955-34.614z" p-id="3548"></path></svg>