<?xml version="1.0" standalone="no"?><!DOCTYPE svg PUBLIC "-//W3C//DTD SVG 1.1//EN" "http://www.w3.org/Graphics/SVG/1.1/DTD/svg11.dtd"><svg t="1528162753137" class="icon" style="" viewBox="0 0 1024 1024" version="1.1" xmlns="http://www.w3.org/2000/svg" p-id="1579" xmlns:xlink="http://www.w3.org/1999/xlink" width="200" height="200"><defs><style type="text/css"></style></defs><path d="M892.236 1021.574 129.653 1021.574c-1.775-0.614-3.476-1.428-5.251-1.774-44.154-7.903-103.37-58.738-118.299-100.848-2.584-7.226-3.881-14.924-5.855-22.492L0.248 133.872c0.614-1.77 1.497-3.476 1.839-5.251C11.15 80.172 69.751 20.275 117.113 7.535c4.154-1.092 8.381-2.043 12.608-3.067l678.907 0c-50.36-11.102 171.721 18.059 215.125 213.013L1023.753 896.46c-0.614 1.706-1.429 3.414-1.775 5.251-9.059 48.518-69.77 104.12-117.133 116.865C900.69 1019.663 896.462 1020.624 892.236 1021.574L892.236 1021.574 892.236 1021.574 892.236 1021.574zM510.979 930.925c119.759 0 246.538 0 366.303-0.086 30.481 0 46.543-18.357 46.543-53.007L923.825 548.449c0-34.743-16.213-53.523-46.168-53.523l-733.57 0c-29.506 0-46.019 18.78-46.019 52.492-0.074 151.309-0.074 179.276 0 330.499 0 5.486 0.145 11.152 1.197 16.381 4.929 23.93 20.543 36.455 45.421 36.455C264.521 931.01 391.305 930.925 510.979 930.925L510.979 930.925 510.979 930.925 510.979 930.925zM514.001 411.007l239.576 0c33.408 0 49.532-16.058 49.532-49.379L803.109 154.61c0-33.56-15.747-49.304-49.373-49.304L238.893 105.306c-32.94 0-49.075 15.977-49.075 48.693-0.075 91.525-0.075 116.479 0 208.009 0 32.717 16.283 48.922 48.923 48.922C325.781 411.007 426.967 411.007 514.001 411.007L514.001 411.007 514.001 411.007 514.001 411.007zM573.501 178.496l149.805 0 0 154.068L573.501 332.564 573.501 178.496 573.501 178.496 573.501 178.496 573.501 178.496zM545.46 204.808" p-id="1580"></path></svg>