<?xml version="1.0" standalone="no"?><!DOCTYPE svg PUBLIC "-//W3C//DTD SVG 1.1//EN" "http://www.w3.org/Graphics/SVG/1.1/DTD/svg11.dtd"><svg t="1528706198118" class="icon" style="" viewBox="0 0 1024 1024" version="1.1" xmlns="http://www.w3.org/2000/svg" p-id="17291" xmlns:xlink="http://www.w3.org/1999/xlink" width="200" height="200"><defs><style type="text/css"></style></defs><path d="M511.706 64.02c-246.878 0-447.725 200.858-447.725 447.725S264.828 959.47 511.706 959.47s447.725-200.857 447.725-447.725S758.585 64.02 511.706 64.02z m0 826.569c-208.895 0-378.844-169.96-378.844-378.845s169.949-378.843 378.844-378.843S890.55 302.86 890.55 511.745 720.602 890.59 511.706 890.59z" fill="" p-id="17292"></path><path d="M465.785 259.182c0-19.014 15.416-34.44 34.44-34.44 19.026 0 34.441 15.426 34.441 34.44v229.603h160.722c19.025 0 34.44 15.427 34.44 34.44s-15.415 34.441-34.44 34.441H510.272c-24.569 0-44.486-19.917-44.486-44.485V259.182z" fill="" p-id="17293"></path></svg>