<?xml version="1.0" standalone="no"?><!DOCTYPE svg PUBLIC "-//W3C//DTD SVG 1.1//EN" "http://www.w3.org/Graphics/SVG/1.1/DTD/svg11.dtd"><svg t="1528706254353" class="icon" style="" viewBox="0 0 1024 1024" version="1.1" xmlns="http://www.w3.org/2000/svg" p-id="17679" xmlns:xlink="http://www.w3.org/1999/xlink" width="200" height="200"><defs><style type="text/css"></style></defs><path d="M211.541333 541.397333l86.144-0.725333 0.213334 29.653333-86.144 0.682667-0.213334-29.610667z m310.229334-29.482666a51.626667 51.626667 0 0 1 22.698666 5.034666 519.466667 519.466667 0 0 1 89.088-86.741333l24.704 23.168a495.786667 495.786667 0 0 1-85.290666 99.669333 51.882667 51.882667 0 0 1-50.389334 62.677334 51.925333 51.925333 0 0 1-43.349333-81.152 887.338667 887.338667 0 0 1-99.242667-166.442667l25.941334-14.506667a1039.616 1039.616 0 0 1 100.821333 160.64c4.693333-1.493333 9.770667-2.304 15.018667-2.346666z m-76.544-282.410667l0.554666 88.704 243.712-142.677333L444.117333 35.754667l0.469334 90.965333a432.512 432.512 0 0 0-241.408 124.117333 432.298667 432.298667 0 0 0-124.544 307.413334c0.938667 115.370667 47.232 224.554667 129.408 305.450666s192.128 125.397333 307.413333 124.501334a431.957333 431.957333 0 0 0 305.450667-129.322667 434.005333 434.005333 0 0 0 104.789333-174.250667l4.864-15.658666-97.322667-27.989334-4.736 14.762667a331.946667 331.946667 0 0 1-79.786666 132.096 331.306667 331.306667 0 0 1-234.026667 99.157333 331.52 331.52 0 0 1-235.562667-95.402666 331.349333 331.349333 0 0 1-99.157333-234.069334 330.837333 330.837333 0 0 1 95.445333-235.52 330.666667 330.666667 0 0 1 169.813334-92.501333z m394.709333 272.981333a321.92 321.92 0 0 0-16.213333-62.250666l-5.461334-14.848 94.677334-36.181334 5.632 15.104c10.794667 29.226667 18.389333 59.52 22.656 90.325334l2.474666 17.408-101.461333 4.522666-2.304-14.08z m-0.938667 110.549334c3.541333-20.096 5.248-40.405333 5.034667-60.8l-0.085333-6.016-0.341334-15.701334 101.12-4.437333 0.512 16.256c0.085333 3.029333 0.085333 6.101333 0.128 9.130667 0.213333 29.098667-2.474667 58.197333-8.021333 86.784l-3.328 17.152-97.578667-28.16 2.56-14.208z m-33.152-212.992a331.733333 331.733333 0 0 0-31.488-48.810667l-9.770666-12.501333 79.232-63.061334 9.941333 12.714667c17.578667 22.442667 32.853333 46.592 45.653333 72.064l7.936 15.829333-94.933333 36.352-6.570667-12.586666zM755.2 328.32l-10.282667-10.112a331.818667 331.818667 0 0 0-48.512-39.552l-14.378666-9.6 62.762666-80.128 12.373334 8.533333c20.992 14.421333 40.704 30.677333 58.88 48.512 2.090667 2.133333 4.224 4.224 6.272 6.4l12.416 12.672L755.2 328.32z m-240.64 521.216l-0.725333-86.101333 29.653333-0.256 0.682667 86.101333-29.610667 0.256z m216.832-87.68l-61.354667-60.416 20.778667-21.162667 61.354667 60.501334-20.778667 21.077333z m-432.170667-3.626667l60.458667-61.397333 21.162667 20.821333-60.416 61.354667-21.205334-20.778667z m3.669334-432.170666l61.354666 60.458666-20.736 21.12-61.397333-60.416 20.778667-21.162666z m432.170666 3.712l-21.162666-20.821334-60.416 61.354667 21.12 20.864 60.458666-61.397333z m87.637334 216.832l-86.144 0.682666-0.298667-29.653333 86.229333-0.682667 0.213334 29.653334z" p-id="17680"></path></svg>